<svg width="131" height="32" viewBox="0 0 131 32" fill="none" xmlns="http://www.w3.org/2000/svg">
<path d="M28.3422 31.5608C31.8084 31.5608 33.9136 29.276 33.8704 26.8132C33.6952 19.9995 25.2288 21.582 21.3232 20.2207C17.5065 18.9027 16.6736 15.3408 15.5765 15.3408C15.1373 15.3408 15.0508 15.5596 15.0508 15.9132C15.0508 17.4068 20.6223 31.5608 28.3446 31.5608H28.3422ZM6.8461 31.6498C11.1021 31.6498 14.4795 28.5737 14.4795 24.7496C14.4795 21.4522 10.7948 18.9917 10.3556 17.8926C10.2667 17.628 10.6196 17.4092 10.8813 17.4092C12.8112 17.4092 32.0269 10.6412 32.0269 3.95979C32.0269 1.93709 30.0081 0.00338173 27.1563 0.00338173C17.725 0.00338173 18.0322 15.5644 10.7492 15.6943C10.4852 15.6943 10.31 15.5188 10.31 15.2999C10.31 13.8063 14.9596 8.61849 14.9596 5.71793C14.9596 2.42052 13.1617 0.00338173 9.69544 0.00338173C6.22918 0.00338173 3.55267 3.30079 3.55267 7.03593C3.55267 10.7711 7.06214 14.2008 7.06214 15.8266C7.06214 17.4525 0 20.6176 0 26.0676C0 29.1894 3.02697 31.6498 6.8437 31.6498H6.8461ZM41.8543 31.6498C45.6278 31.6498 49.2693 26.5943 49.531 20.9254C49.8382 13.2339 48.698 9.49635 46.0647 9.49635C44.5284 9.49635 42.0728 10.8601 39.5715 10.8601C37.6415 10.8601 36.1484 10.949 34.1321 10.949C30.4474 10.949 27.8597 13.104 27.8597 15.6534C27.8597 17.895 30.0969 18.9051 32.7734 18.9051C40.0564 18.8619 42.7761 11.038 45.9783 11.1246C46.4608 11.1246 46.8113 11.5191 46.8113 12.0482C46.8113 14.9054 37.4231 20.5743 37.4231 27.0801C37.4231 29.7185 39.3963 31.6522 41.8543 31.6522V31.6498ZM56.0242 32.001C59.2264 32.001 62.3422 29.0114 62.3422 25.6274C62.3422 21.671 57.911 20.264 57.911 18.8138C57.911 17.6713 61.9029 12.5725 65.1507 12.5725C66.5118 12.5725 67.4312 13.5826 67.4312 14.7708C67.4312 18.4193 64.7115 21.3199 64.7115 26.6376C64.7115 29.6704 66.5094 31.7797 69.0539 31.7797C72.6954 31.7797 75.2398 27.6477 75.2398 21.3632C75.2398 13.6259 71.0294 8.79166 65.6764 8.79166C60.0162 8.79166 58.5687 16.3509 57.5173 16.3509C57.21 16.3509 56.9028 16.1753 56.9028 15.7785C56.9028 15.0305 58.8327 13.3181 58.7895 11.9111C58.7463 10.1962 57.3421 8.83495 55.5873 8.83495C53.6574 8.83495 52.1211 10.5041 52.1211 12.5701C52.1211 15.7352 55.6305 17.1422 55.6305 18.1091C55.6305 19.9105 50.6304 23.4725 50.6304 27.4722C50.6304 29.9783 53.0861 31.9986 56.0266 31.9986L56.0242 32.001ZM122.445 31.6498C127.226 31.6498 131 28.1768 131 23.6504C131 19.124 127.226 15.6077 122.445 15.6077C117.663 15.6077 113.935 19.124 113.935 23.6504C113.935 28.1768 117.709 31.6498 122.445 31.6498ZM105.334 31.6498C108.625 31.6498 111.564 29.1004 111.564 26.2864C111.564 22.0222 106.957 12.0001 108.318 12.0001C109.854 12.0001 113.364 15.0762 116.391 15.0762C118.717 15.0762 120.601 13.3614 120.601 11.2088C120.601 9.05622 118.714 7.34137 116.391 7.34137C112.749 7.34137 110.423 10.3742 107.091 10.3742C104.329 10.3742 102.881 8.88064 100.337 8.79166C98.493 8.74836 96.8271 10.3742 96.8271 12.2646C96.8271 14.1551 98.493 15.7809 100.337 15.7809C102.97 15.7809 104.461 12.0001 105.644 12.0001C107.18 12.0001 100.161 22.989 100.161 27.3399C100.161 29.6247 102.617 31.6474 105.339 31.6474L105.334 31.6498ZM88.752 31.6498C93.7089 31.6498 97.7465 28.1768 97.8329 24.485C97.8761 23.078 96.8679 21.76 94.9812 21.76C92.7008 21.76 91.4717 24.0016 86.3395 24.0449C82.8733 24.0882 78.3556 22.7269 78.3556 21.76C78.3556 21.0577 78.9702 21.1443 79.7599 21.1443C88.0943 21.1443 95.4661 17.0556 95.4661 12.8803C95.4661 10.2876 92.7464 8.79166 88.7544 8.79166C82.482 8.79166 76.7785 14.1983 76.7785 20.4829C76.7785 26.7675 82.1748 31.6474 88.7544 31.6474L88.752 31.6498ZM47.5578 8.22164C49.9271 8.22164 51.8138 6.37452 51.8138 4.08966C51.8138 1.80481 49.9271 0.000976562 47.5578 0.000976562C45.1886 0.000976562 43.1698 1.8024 43.1698 4.08966C43.1698 6.37692 45.0997 8.22164 47.5578 8.22164Z" fill="#FF5F4B"/>
</svg>
